<mxfile host="app.diagrams.net" agent="Mozilla/5.0 (Macintosh; Intel Mac OS X 10_15_7) AppleWebKit/537.36 (KHTML, like Gecko) Chrome/138.0.0.0 Safari/537.36" version="26.1.1">
  <diagram name="Page-1" id="4oaY-IUn32ovCn2yeOFU">
    <mxGraphModel dx="2635" dy="1073" grid="1" gridSize="10" guides="1" tooltips="1" connect="1" arrows="1" fold="1" page="1" pageScale="1" pageWidth="1654" pageHeight="1169" math="0" shadow="0">
      <root>
        <mxCell id="0" />
        <mxCell id="1" parent="0" />
        <mxCell id="cpxWBVDladI01jByWYwd-7" value="" style="rounded=1;whiteSpace=wrap;html=1;" vertex="1" parent="1">
          <mxGeometry x="790" y="140" width="280" height="850" as="geometry" />
        </mxCell>
        <mxCell id="cpxWBVDladI01jByWYwd-8" value="" style="shape=image;html=1;verticalAlign=top;verticalLabelPosition=bottom;labelBackgroundColor=#ffffff;imageAspect=0;aspect=fixed;image=https://cdn4.iconfinder.com/data/icons/ionicons/512/icon-social-github-128.png" vertex="1" parent="1">
          <mxGeometry x="808" y="156" width="30" height="30" as="geometry" />
        </mxCell>
        <mxCell id="cpxWBVDladI01jByWYwd-9" value="&lt;font style=&quot;font-size: 12px;&quot;&gt;GitHub&lt;/font&gt;" style="text;html=1;align=left;verticalAlign=middle;resizable=0;points=[];autosize=1;strokeColor=none;fillColor=none;fontStyle=1;fontSize=10;rounded=0;shadow=0;" vertex="1" parent="1">
          <mxGeometry x="838" y="156" width="60" height="30" as="geometry" />
        </mxCell>
        <mxCell id="cpxWBVDladI01jByWYwd-21" value="" style="group" vertex="1" connectable="0" parent="1">
          <mxGeometry x="850" y="200" width="160" height="180" as="geometry" />
        </mxCell>
        <mxCell id="cpxWBVDladI01jByWYwd-1" value="" style="rounded=1;whiteSpace=wrap;html=1;" vertex="1" parent="cpxWBVDladI01jByWYwd-21">
          <mxGeometry width="160" height="180" as="geometry" />
        </mxCell>
        <mxCell id="cpxWBVDladI01jByWYwd-23" style="edgeStyle=orthogonalEdgeStyle;rounded=0;orthogonalLoop=1;jettySize=auto;html=1;exitX=0.25;exitY=1;exitDx=0;exitDy=0;entryX=0.25;entryY=0;entryDx=0;entryDy=0;endArrow=classic;endFill=1;" edge="1" parent="cpxWBVDladI01jByWYwd-21" source="cpxWBVDladI01jByWYwd-2" target="cpxWBVDladI01jByWYwd-3">
          <mxGeometry relative="1" as="geometry" />
        </mxCell>
        <mxCell id="cpxWBVDladI01jByWYwd-2" value="&lt;b&gt;main&lt;/b&gt;" style="rounded=1;whiteSpace=wrap;html=1;" vertex="1" parent="cpxWBVDladI01jByWYwd-21">
          <mxGeometry x="38" y="40" width="90" height="40" as="geometry" />
        </mxCell>
        <mxCell id="cpxWBVDladI01jByWYwd-24" style="edgeStyle=orthogonalEdgeStyle;rounded=0;orthogonalLoop=1;jettySize=auto;html=1;exitX=0.75;exitY=0;exitDx=0;exitDy=0;entryX=0.75;entryY=1;entryDx=0;entryDy=0;" edge="1" parent="cpxWBVDladI01jByWYwd-21" source="cpxWBVDladI01jByWYwd-3" target="cpxWBVDladI01jByWYwd-2">
          <mxGeometry relative="1" as="geometry" />
        </mxCell>
        <mxCell id="cpxWBVDladI01jByWYwd-3" value="&lt;b&gt;Pull Request&lt;/b&gt;" style="rounded=1;whiteSpace=wrap;html=1;" vertex="1" parent="cpxWBVDladI01jByWYwd-21">
          <mxGeometry x="38" y="110" width="90" height="40" as="geometry" />
        </mxCell>
        <mxCell id="cpxWBVDladI01jByWYwd-4" value="" style="shape=image;html=1;verticalAlign=top;verticalLabelPosition=bottom;labelBackgroundColor=#ffffff;imageAspect=0;aspect=fixed;image=https://cdn4.iconfinder.com/data/icons/ionicons/512/icon-social-github-128.png" vertex="1" parent="cpxWBVDladI01jByWYwd-21">
          <mxGeometry x="10" y="10" width="20" height="20" as="geometry" />
        </mxCell>
        <mxCell id="cpxWBVDladI01jByWYwd-5" value="Seed Repository" style="text;html=1;align=left;verticalAlign=middle;resizable=0;points=[];autosize=1;strokeColor=none;fillColor=none;fontStyle=1;fontSize=10;rounded=0;shadow=0;" vertex="1" parent="cpxWBVDladI01jByWYwd-21">
          <mxGeometry x="30" y="4" width="100" height="30" as="geometry" />
        </mxCell>
        <mxCell id="cpxWBVDladI01jByWYwd-10" value="" style="rounded=1;whiteSpace=wrap;html=1;" vertex="1" parent="1">
          <mxGeometry x="850" y="410" width="160" height="540" as="geometry" />
        </mxCell>
        <mxCell id="cpxWBVDladI01jByWYwd-26" style="edgeStyle=orthogonalEdgeStyle;rounded=0;orthogonalLoop=1;jettySize=auto;html=1;exitX=0.25;exitY=0;exitDx=0;exitDy=0;entryX=0.25;entryY=1;entryDx=0;entryDy=0;" edge="1" parent="1" source="cpxWBVDladI01jByWYwd-11" target="cpxWBVDladI01jByWYwd-12">
          <mxGeometry relative="1" as="geometry" />
        </mxCell>
        <mxCell id="cpxWBVDladI01jByWYwd-29" style="edgeStyle=orthogonalEdgeStyle;rounded=0;orthogonalLoop=1;jettySize=auto;html=1;exitX=0.5;exitY=1;exitDx=0;exitDy=0;" edge="1" parent="1" source="cpxWBVDladI01jByWYwd-11" target="cpxWBVDladI01jByWYwd-19">
          <mxGeometry relative="1" as="geometry" />
        </mxCell>
        <mxCell id="cpxWBVDladI01jByWYwd-11" value="&lt;b&gt;main&lt;/b&gt;" style="rounded=1;whiteSpace=wrap;html=1;" vertex="1" parent="1">
          <mxGeometry x="885" y="600" width="90" height="40" as="geometry" />
        </mxCell>
        <mxCell id="cpxWBVDladI01jByWYwd-27" style="edgeStyle=orthogonalEdgeStyle;rounded=0;orthogonalLoop=1;jettySize=auto;html=1;exitX=0.75;exitY=1;exitDx=0;exitDy=0;entryX=0.75;entryY=0;entryDx=0;entryDy=0;" edge="1" parent="1" source="cpxWBVDladI01jByWYwd-12" target="cpxWBVDladI01jByWYwd-11">
          <mxGeometry relative="1" as="geometry" />
        </mxCell>
        <mxCell id="cpxWBVDladI01jByWYwd-28" style="edgeStyle=orthogonalEdgeStyle;rounded=0;orthogonalLoop=1;jettySize=auto;html=1;exitX=0.5;exitY=0;exitDx=0;exitDy=0;entryX=0.5;entryY=1;entryDx=0;entryDy=0;" edge="1" parent="1" source="cpxWBVDladI01jByWYwd-12" target="cpxWBVDladI01jByWYwd-15">
          <mxGeometry relative="1" as="geometry" />
        </mxCell>
        <mxCell id="cpxWBVDladI01jByWYwd-12" value="&lt;b&gt;Pull Request&lt;/b&gt;" style="rounded=1;whiteSpace=wrap;html=1;" vertex="1" parent="1">
          <mxGeometry x="885" y="530" width="90" height="40" as="geometry" />
        </mxCell>
        <mxCell id="cpxWBVDladI01jByWYwd-13" value="" style="shape=image;html=1;verticalAlign=top;verticalLabelPosition=bottom;labelBackgroundColor=#ffffff;imageAspect=0;aspect=fixed;image=https://cdn4.iconfinder.com/data/icons/ionicons/512/icon-social-github-128.png" vertex="1" parent="1">
          <mxGeometry x="860" y="420" width="20" height="20" as="geometry" />
        </mxCell>
        <mxCell id="cpxWBVDladI01jByWYwd-14" value="Application Repository" style="text;html=1;align=left;verticalAlign=middle;resizable=0;points=[];autosize=1;strokeColor=none;fillColor=none;fontStyle=1;fontSize=10;rounded=0;shadow=0;" vertex="1" parent="1">
          <mxGeometry x="880" y="414" width="120" height="30" as="geometry" />
        </mxCell>
        <mxCell id="cpxWBVDladI01jByWYwd-15" value="&lt;b&gt;dev&lt;/b&gt;" style="rounded=1;whiteSpace=wrap;html=1;" vertex="1" parent="1">
          <mxGeometry x="885" y="460" width="90" height="40" as="geometry" />
        </mxCell>
        <mxCell id="cpxWBVDladI01jByWYwd-31" style="edgeStyle=orthogonalEdgeStyle;rounded=0;orthogonalLoop=1;jettySize=auto;html=1;exitX=0.5;exitY=1;exitDx=0;exitDy=0;" edge="1" parent="1" source="cpxWBVDladI01jByWYwd-16" target="cpxWBVDladI01jByWYwd-18">
          <mxGeometry relative="1" as="geometry" />
        </mxCell>
        <mxCell id="cpxWBVDladI01jByWYwd-16" value="&lt;b&gt;stg&lt;/b&gt;" style="rounded=1;whiteSpace=wrap;html=1;" vertex="1" parent="1">
          <mxGeometry x="885" y="740" width="90" height="40" as="geometry" />
        </mxCell>
        <mxCell id="cpxWBVDladI01jByWYwd-17" value="&lt;b&gt;prd&lt;/b&gt;" style="rounded=1;whiteSpace=wrap;html=1;" vertex="1" parent="1">
          <mxGeometry x="885" y="880" width="90" height="40" as="geometry" />
        </mxCell>
        <mxCell id="cpxWBVDladI01jByWYwd-32" style="edgeStyle=orthogonalEdgeStyle;rounded=0;orthogonalLoop=1;jettySize=auto;html=1;exitX=0.5;exitY=1;exitDx=0;exitDy=0;entryX=0.5;entryY=0;entryDx=0;entryDy=0;" edge="1" parent="1" source="cpxWBVDladI01jByWYwd-18" target="cpxWBVDladI01jByWYwd-17">
          <mxGeometry relative="1" as="geometry" />
        </mxCell>
        <mxCell id="cpxWBVDladI01jByWYwd-18" value="&lt;b&gt;Pull Request&lt;/b&gt;" style="rounded=1;whiteSpace=wrap;html=1;" vertex="1" parent="1">
          <mxGeometry x="885" y="810" width="90" height="40" as="geometry" />
        </mxCell>
        <mxCell id="cpxWBVDladI01jByWYwd-30" style="edgeStyle=orthogonalEdgeStyle;rounded=0;orthogonalLoop=1;jettySize=auto;html=1;exitX=0.5;exitY=1;exitDx=0;exitDy=0;entryX=0.5;entryY=0;entryDx=0;entryDy=0;" edge="1" parent="1" source="cpxWBVDladI01jByWYwd-19" target="cpxWBVDladI01jByWYwd-16">
          <mxGeometry relative="1" as="geometry" />
        </mxCell>
        <mxCell id="cpxWBVDladI01jByWYwd-19" value="&lt;b&gt;Pull Request&lt;/b&gt;" style="rounded=1;whiteSpace=wrap;html=1;" vertex="1" parent="1">
          <mxGeometry x="885" y="670" width="90" height="40" as="geometry" />
        </mxCell>
      </root>
    </mxGraphModel>
  </diagram>
</mxfile>
